HIERARCHY
ROOT Hips
{
  OFFSET 0 0 0
  CHANNELS 6 Xposition Yposition Zposition Zrotation Yrotation Xrotation
  JOINT LeftThigh
  {
    OFFSET 8.409438 0 -5.917753
    CHANNELS 3 Zrotation Yrotation Xrotation
    JOINT LeftLeg
    {
      OFFSET 0 0 -42.358652
      CHANNELS 3 Zrotation Yrotation Xrotation
      JOINT LeftFoot
      {
        OFFSET 0 0 -39.357303
        CHANNELS 3 Zrotation Yrotation Xrotation
      }
    }
  }
  JOINT RightThigh
  {
    OFFSET -8.409438 0 -5.917753
    CHANNELS 3 Zrotation Yrotation Xrotation
    JOINT RightLeg
    {
      OFFSET 0 0 -42.358652
      CHANNELS 3 Zrotation Yrotation Xrotation
      JOINT RightFoot
      {
        OFFSET 0 0 -39.357303
        CHANNELS 3 Zrotation Yrotation Xrotation
      }
    }
  }
  JOINT SpineLow
  {
    OFFSET 0 0 4.719101
    CHANNELS 3 Zrotation Yrotation Xrotation
    JOINT SpineMid
    {
      OFFSET 0 0 12.899191
      CHANNELS 3 Zrotation Yrotation Xrotation
      JOINT Chest
      {
        OFFSET 0 0 12.899191
        CHANNELS 3 Zrotation Yrotation Xrotation
        JOINT LeftShoulder
        {
          OFFSET 7.550562 1.41573 9.438202
          CHANNELS 3 Zrotation Yrotation Xrotation
          JOINT LeftArm
          {
            OFFSET 9.155056 0 4.247191
            CHANNELS 3 Zrotation Yrotation Xrotation
            JOINT LeftForearm
            {
              OFFSET 0 0 25.771955
              CHANNELS 3 Zrotation Yrotation Xrotation
              JOINT LeftHand
              {
                OFFSET 0 0 25.197169
                CHANNELS 3 Zrotation Yrotation Xrotation
              }
            }
          }
        }
        JOINT RightShoulder
        {
          OFFSET -7.550562 1.41573 9.438202
          CHANNELS 3 Zrotation Yrotation Xrotation
          JOINT RightArm
          {
            OFFSET -9.155056 0 4.247191
            CHANNELS 3 Zrotation Yrotation Xrotation
            JOINT RightForearm
            {
              OFFSET 0 0 -25.771955
              CHANNELS 3 Zrotation Yrotation Xrotation
              JOINT RightHand
              {
                OFFSET 0 0 -25.197169
                CHANNELS 3 Zrotation Yrotation Xrotation
              }
            }
          }
        }
        JOINT Neck
        {
          OFFSET 0 0 15.101124
          CHANNELS 3 Zrotation Yrotation Xrotation
          JOINT Head
          {
            OFFSET 0 0 11.325843
            CHANNELS 3 Zrotation Yrotation Xrotation
            End Site
            {
              OFFSET 0 0 14.157303
            }
          }
        }
      }
    }
  }
}
MOTION
Frames: 11
Frame Time: 0.0
0.0  93.25843  0.0  -1.701167  -47.289275  -96.96557  32.431917  -29.951945  -39.324297  6.497159  2.269001  37.393244  6.838647  2.041499  7.099376  -4.548095  17.169859  0.846999  5.246751  5.837182  33.464112  -6.979118  4.394576  -10.004956  2.427258  -0.558382  0.225234  6.630514  -1.547092  0.559026  6.630514  -1.547092  0.559026  -10.402262  11.045767  7.414776  -138.940443  66.776864  -82.993591  -27.847868  -1.156283  82.423164  86.751588  2.283974  3.020947  -5.005069  -12.513943  22.436682  73.653568  36.897768  32.805209  -9.583484  -3.256194  -116.370476  77.103886  -3.328415  0.37599  -12.613153  6.531194  6.931627  -9.525352  4.758621  5.331083  
0.0  93.25843  0.0  -1.505563  -47.119023  -97.00405  32.616617  -29.569417  -39.5849  6.575217  2.199694  37.639794  6.760748  2.105819  7.184131  -4.257491  17.311727  1.15278  5.259027  5.755819  32.887748  -6.744385  4.622316  -9.872282  2.545837  -0.590528  0.219083  6.95468  -1.635128  0.536056  6.95468  -1.635128  0.536056  -10.581611  11.289852  7.293038  -141.49253  66.847227  -85.425945  -27.555324  -1.797025  82.067385  87.190222  3.169167  4.177019  -4.866923  -12.371092  22.394818  73.618273  37.357621  32.48954  -10.538571  -1.906987  -115.993227  77.220669  -3.483441  3.06616  -13.678973  6.284989  6.876714  -10.321375  4.563362  5.296681  
0.0  93.25843  0.0  -1.548228  -46.568052  -96.810827  32.437923  -29.149311  -39.971744  6.441352  2.213783  37.901835  6.49309  2.203156  7.093442  -3.98596  17.304481  1.619331  4.827862  5.629219  32.270777  -6.927555  4.708964  -9.813975  2.630498  -0.622586  0.218868  7.185998  -1.723239  0.529879  7.185998  -1.723239  0.529879  -10.786067  11.516359  7.07533  -143.547218  66.651512  -87.396288  -26.820029  -2.758669  81.817291  87.500801  4.443691  5.675254  -4.616865  -12.324232  22.230512  73.229459  38.004038  32.030191  -11.891256  -0.172685  -115.531165  76.93056  -3.446178  6.002893  -14.187047  6.238047  6.843375  -10.701368  4.523377  5.27615  
0.0  93.25843  0.0  -1.206223  -46.601889  -96.952162  32.739933  -28.535506  -40.142205  6.104134  2.328733  38.091041  6.187854  2.30787  6.968491  -2.905541  17.527193  2.274013  4.307418  5.52758  31.462606  -7.087235  4.734934  -9.672898  2.801539  -0.606297  0.238554  7.653181  -1.682293  0.580994  7.653181  -1.682293  0.580994  -11.984927  11.38571  6.504521  -145.072242  66.385752  -90.008956  -26.079882  -4.057357  81.604199  87.773311  5.761983  7.233966  -4.572876  -12.463431  21.939215  73.19411  38.69512  31.789004  -13.665329  1.906809  -115.087169  76.28101  -3.443176  8.927331  -15.265966  5.929468  6.695754  -11.505968  4.283744  5.169755  
0.0  93.25843  0.0  -1.310609  -45.8757  -96.81683  32.242777  -28.100813  -40.340216  5.528845  2.632581  38.148203  6.158296  2.42304  6.876517  -2.492937  17.595489  3.041249  3.565648  5.327533  30.675598  -7.341471  4.82103  -9.606605  2.860713  -0.69146  0.224065  7.814999  -1.913464  0.529881  7.814999  -1.913464  0.529882  -12.070514  11.973676  6.455469  -146.824316  65.686018  -91.94931  -24.470553  -5.506101  81.527606  88.139693  6.770187  8.485297  -4.316276  -12.155586  22.039508  72.870339  39.739349  31.294394  -16.208007  4.407006  -114.386721  75.151614  -3.339973  11.279958  -15.739598  6.175474  6.683805  -11.862612  4.463746  5.171678  
0.0  93.25843  0.0  -0.898366  -46.226305  -97.262069  32.648044  -27.584827  -40.163625  4.838845  3.063969  38.110808  6.605915  2.482252  6.973797  -0.933725  17.951666  4.012603  2.770864  5.155582  29.791029  -7.564116  4.807915  -9.468233  3.076984  -0.737685  0.226098  8.406105  -2.04136  0.523248  8.406105  -2.04136  0.523248  -12.197696  12.45612  6.554727  -148.285379  64.926722  -93.867792  -22.753482  -7.000498  81.469694  88.575231  7.387129  9.465897  -4.917379  -12.103455  21.979082  74.008169  40.623298  31.678466  -18.681904  6.490778  -113.469374  74.76059  -2.947082  13.188902  -16.24815  6.416025  6.745861  -12.246105  4.637379  5.229725  
0.0  93.25843  0.0  -1.041885  -45.413727  -97.080782  32.028697  -27.172877  -40.315456  4.196069  3.559207  38.071886  7.436963  2.416291  7.225715  -0.970599  18.086331  4.631173  2.340625  4.992363  28.980519  -7.859842  4.799693  -9.331935  3.135805  -0.738507  0.215418  8.567264  -2.042624  0.492163  8.567264  -2.042624  0.492163  -12.317107  12.410657  6.529199  -149.408613  64.238375  -95.347684  -21.143937  -8.136891  81.457333  89.187707  7.763253  10.498439  -4.600493  -12.407877  21.87262  73.748092  42.057536  31.240393  -20.743419  8.055871  -112.628213  75.194873  -2.70339  14.767339  -16.722903  6.407618  6.781768  -12.60218  4.625075  5.261705  
0.0  93.25843  0.0  -0.627236  -45.866837  -97.531861  32.231445  -26.716618  -40.228445  4.033332  3.755552  38.523391  8.543211  2.286827  7.577068  0.189458  18.570018  5.382522  2.116424  4.836296  28.152697  -7.988111  4.868512  -9.174107  3.32735  -0.715627  0.231264  9.090551  -1.983605  0.532562  9.090551  -1.983605  0.532562  -11.985142  12.364722  6.674499  -150.272334  63.638843  -96.63982  -19.687493  -8.981998  81.529439  89.830382  8.068215  11.833911  -4.740103  -12.978842  21.43394  74.660716  43.288448  31.641941  -22.357905  9.238762  -111.774977  76.08191  -2.651086  15.833864  -17.148442  6.411381  6.851002  -12.921836  4.621455  5.318454  
0.0  93.25843  0.0  -0.76533  -45.145501  -97.23353  31.692615  -26.361132  -40.4955  4.188142  3.819166  38.999056  8.695893  2.282968  7.558357  -0.456901  18.889845  5.577309  2.07977  4.718192  27.370649  -8.3089  4.836414  -9.016733  3.363391  -0.716403  0.171157  9.190894  -1.977631  0.367383  9.190894  -1.977631  0.367383  -11.756657  12.328221  6.867521  -150.75451  63.228576  -97.516409  -18.363887  -9.612182  81.705641  90.523491  8.374716  13.571961  -4.203896  -13.356264  21.155882  74.087606  45.02613  30.980117  -23.437025  10.008154  -110.88488  77.113197  -2.902434  16.184815  -17.526977  6.441133  7.016744  -13.207535  4.635017  5.447779  
0.0  93.25843  0.0  -0.817313  -44.539979  -96.96342  31.077069  -26.029286  -40.773967  4.817793  3.609487  39.711749  7.963722  2.427122  7.313573  -1.216874  19.321834  5.692434  2.171111  4.754441  26.420207  -8.516142  4.734663  -8.733042  3.225781  -0.730049  0.074188  8.817584  -2.001319  0.105124  8.817584  -2.001319  0.105124  -11.142565  12.210738  6.952959  -150.472607  62.782977  -98.623714  -17.140161  -10.164209  82.038422  91.277905  8.542893  15.604606  -3.456586  -13.896363  20.621982  74.88352  46.604985  31.222044  -24.012145  10.209041  -110.039566  77.85835  -3.509344  15.918069  -17.275898  6.579844  7.244776  -13.023006  4.735534  5.619688  
0.0  93.25843  0.0  -1.017087  -43.683938  -96.625798  29.9983  -25.875309  -40.992824  5.423302  3.589013  40.444308  7.228978  2.495001  6.98155  -2.096762  19.773356  5.8807  1.986728  4.635445  25.530083  -8.672426  4.746884  -8.515792  3.280691  -0.721815  0.027451  8.969075  -1.972556  -0.022943  8.969075  -1.972556  -0.022943  -11.265137  12.006693  6.848728  -150.267521  62.702494  -98.995383  -15.914305  -10.908865  82.509018  91.840974  8.392527  17.628926  -3.044579  -14.358637  19.880941  73.840232  48.894116  30.211041  -24.190618  9.98775  -109.244178  78.420856  -4.177685  14.610484  -17.88395  6.459128  7.310652  -13.478444  4.636069  5.672703  
